<svg width="35" height="34" viewBox="0 0 35 34" fill="none" xmlns="http://www.w3.org/2000/svg">
<path d="M27.6988 6.88075L28.2879 8.09306C28.3782 8.279 28.5535 8.4081 28.7554 8.43785L30.0735 8.63228C30.5829 8.70719 30.7864 9.3431 30.4177 9.70806L29.4641 10.6516C29.3175 10.7966 29.2511 11.0054 29.2856 11.2099L29.5109 12.5423C29.598 13.0576 29.0651 13.4502 28.6093 13.2069L27.4305 12.5779C27.2493 12.4812 27.0331 12.4812 26.8525 12.5779L25.6736 13.2069C25.2178 13.4502 24.685 13.0571 24.7721 12.5423L24.9974 11.2099C25.0319 11.0054 24.965 10.7966 24.8189 10.6516L23.8653 9.70806C23.4966 9.3431 23.7 8.70772 24.2095 8.63228L25.5276 8.43785C25.73 8.4081 25.9047 8.279 25.995 8.09306L26.5842 6.88075C26.8126 6.41166 27.4709 6.41166 27.6988 6.88075Z" fill="#FAB400"/>
<path d="M18.3907 2.4767L18.9798 3.68901C19.0701 3.87495 19.2454 4.00404 19.4473 4.03379L20.7654 4.22823C21.2748 4.30314 21.4783 4.93904 21.1096 5.30401L20.156 6.24751C20.0094 6.39254 19.943 6.60132 19.9775 6.80585L20.2028 8.13823C20.2899 8.65354 19.757 9.04614 19.3012 8.80282L18.1224 8.17382C17.9412 8.07714 17.725 8.07714 17.5444 8.17382L16.3655 8.80282C15.9097 9.04614 15.3769 8.65301 15.464 8.13823L15.6893 6.80585C15.7238 6.60132 15.6569 6.39254 15.5108 6.24751L14.5572 5.30401C14.1885 4.93904 14.3919 4.30367 14.9014 4.22823L16.2194 4.03379C16.4219 4.00404 16.5966 3.87495 16.6869 3.68901L17.2761 2.4767C17.504 2.0076 18.1628 2.0076 18.3907 2.4767Z" fill="#FAB400"/>
<path d="M9.08207 6.88075L9.67123 8.09306C9.76154 8.279 9.93685 8.4081 10.1387 8.43785L11.4568 8.63228C11.9662 8.70719 12.1697 9.3431 11.801 9.70806L10.8474 10.6516C10.7008 10.7966 10.6344 11.0054 10.6689 11.2099L10.8942 12.5423C10.9813 13.0576 10.4484 13.4502 9.99263 13.2069L8.81379 12.5779C8.63263 12.4812 8.41641 12.4812 8.23579 12.5779L7.05694 13.2069C6.60113 13.4502 6.06829 13.0571 6.15541 12.5423L6.38066 11.2099C6.41519 11.0054 6.34826 10.7966 6.20216 10.6516L5.24857 9.70806C4.87988 9.3431 5.08335 8.70772 5.59282 8.63228L6.91085 8.43785C7.11326 8.4081 7.28804 8.279 7.37835 8.09306L7.96751 6.88075C8.19594 6.41166 8.85416 6.41166 9.08207 6.88075Z" fill="#FAB400"/>
<path d="M27.5551 24.4375H27.1301C28.0704 24.4375 28.8408 25.1282 28.9683 26.0313C28.9895 26.1482 28.9948 26.2703 28.9895 26.3978C28.9364 27.4019 28.0333 28.1563 27.0239 28.1563H26.5989C27.5445 28.1563 28.3201 28.8575 28.437 29.7713C28.4583 29.8828 28.4636 29.9997 28.4583 30.1166C28.4051 31.1207 27.502 31.875 26.4926 31.875H15.3364C14.7148 31.875 14.1039 31.6891 13.5833 31.3438C13.0626 30.9985 12.4517 30.8125 11.8301 30.8125H10.927V18.0625H13.5833C15.0495 18.0625 16.2395 16.8725 16.2395 15.4063V11.6875C16.2395 11.1138 16.6964 10.6303 17.2701 10.625C18.7523 10.6091 19.9583 11.8044 19.9583 13.2813V16.4688C19.9583 16.761 20.1973 17 20.4895 17H28.1926C29.1329 17 29.9033 17.6907 30.0308 18.5938C30.052 18.7107 30.0573 18.8328 30.052 18.9603C29.9989 19.9644 29.0958 20.7188 28.0864 20.7188H27.6614C28.6017 20.7188 29.372 21.4094 29.4995 22.3125C29.5208 22.4294 29.5261 22.5516 29.5208 22.6791C29.4676 23.6832 28.5645 24.4375 27.5551 24.4375Z" fill="#F0C8A0"/>
<path d="M30.052 18.9603C29.9989 19.9644 29.0958 20.7188 28.0864 20.7188H23.677C23.677 20.4266 23.9161 20.1875 24.2083 20.1875H28.1926C29.1223 20.1875 29.8979 19.4969 30.0308 18.5938C30.052 18.7106 30.0573 18.8328 30.052 18.9603Z" fill="#D2AA82"/>
<path d="M29.5208 22.6791C29.4676 23.6831 28.5645 24.4375 27.5551 24.4375H23.677C23.677 24.1453 23.9161 23.9062 24.2083 23.9062H27.6614C28.5911 23.9062 29.3667 23.2156 29.4995 22.3125C29.5208 22.4294 29.5261 22.5516 29.5208 22.6791Z" fill="#D2AA82"/>
<path d="M28.9895 26.3978C28.9364 27.4019 28.0333 28.1562 27.0239 28.1562H23.677C23.677 27.8641 23.9161 27.625 24.2083 27.625H27.1301C28.0598 27.625 28.8354 26.9344 28.9683 26.0312C28.9895 26.1481 28.9948 26.2703 28.9895 26.3978Z" fill="#D2AA82"/>
<path d="M10.3958 31.875H5.6145C5.32125 31.875 5.08325 31.637 5.08325 31.3438V17.5312C5.08325 17.238 5.32125 17 5.6145 17H10.3958C10.689 17 10.927 17.238 10.927 17.5312V31.3438C10.927 31.637 10.689 31.875 10.3958 31.875Z" fill="#C80A50"/>
<path d="M10.927 30.8125V31.3438C10.927 31.6359 10.6879 31.875 10.3958 31.875H5.6145C5.32231 31.875 5.08325 31.6359 5.08325 31.3438V30.8125C5.08325 31.1047 5.32231 31.3438 5.6145 31.3438H10.3958C10.6879 31.3438 10.927 31.1047 10.927 30.8125Z" fill="#A00028"/>
<path d="M8.00513 21.7812C8.73863 21.7812 9.33325 21.1866 9.33325 20.4531C9.33325 19.7196 8.73863 19.125 8.00513 19.125C7.27162 19.125 6.677 19.7196 6.677 20.4531C6.677 21.1866 7.27162 21.7812 8.00513 21.7812Z" fill="#A00028"/>
<path d="M8.00513 21.25C8.73863 21.25 9.33325 20.6554 9.33325 19.9219C9.33325 19.1884 8.73863 18.5938 8.00513 18.5938C7.27162 18.5938 6.677 19.1884 6.677 19.9219C6.677 20.6554 7.27162 21.25 8.00513 21.25Z" fill="#F0F0F0"/>
<path d="M28.4583 30.1166C28.4051 31.1206 27.502 31.875 26.4926 31.875H15.3364C14.7148 31.875 14.1039 31.6891 13.5833 31.3438C13.0626 30.9984 12.4517 30.8125 11.8301 30.8125H10.927V18.0625H11.4583V30.2812H11.8301C12.4517 30.2812 13.0626 30.4672 13.5833 30.8125C14.1039 31.1578 14.7148 31.3438 15.3364 31.3438H26.4926C27.4383 31.3438 28.2936 30.6797 28.437 29.7713C28.4583 29.8828 28.4636 29.9997 28.4583 30.1166Z" fill="#D2AA82"/>
</svg>
